<?xml version="1.0" encoding="UTF-8"?>
<svg width="341px" height="201px" viewBox="0 0 341 201" version="1.1" xmlns="http://www.w3.org/2000/svg" xmlns:xlink="http://www.w3.org/1999/xlink">
    <!-- Generator: Sketch 48.2 (47327) - http://www.bohemiancoding.com/sketch -->
    <title>Page 1</title>
    <desc>Created with Sketch.</desc>
    <defs>
        <polygon id="path-1" points="0 0.415391686 340.911756 0.415391686 340.911756 62.6397596 0 62.6397596"></polygon>
        <polygon id="path-3" points="0.795063158 0.131576894 101.822879 0.131576894 101.822879 83.8593 0.795063158 83.8593"></polygon>
    </defs>
    <g id="Desktop-Copy-3" stroke="none" stroke-width="1" fill="none" fill-rule="evenodd" transform="translate(-663.000000, -142.000000)">
        <g id="Page-1" transform="translate(663.000000, 142.000000)">
            <g id="Group-3" transform="translate(0.000000, 105.000000)">
                <mask id="mask-2" fill="white">
                    <use xlink:href="#path-1"></use>
                </mask>
                <g id="Clip-2"></g>
                <path d="M141.206872,34.9084175 C137.973713,34.9084175 136.212506,35.6583547 134.798675,36.2599377 C133.607866,36.7662473 132.819852,37.101065 130.893743,37.101065 C128.967634,37.101065 128.179619,36.7662473 126.988811,36.2599377 C126.569798,36.0816405 126.112939,35.8910938 125.603365,35.7100745 L135.702932,12.8608097 L136.390924,12.8608097 C139.797095,20.4908418 143.154607,28.1698716 146.540503,35.8216804 C145.286167,35.3466748 143.677697,34.9084175 141.206872,34.9084175 Z M156.48463,42.7984097 C157.01583,42.6119462 157.490261,42.4145943 157.925494,42.2294918 C159.114951,41.7231822 159.901614,41.3883645 161.826371,41.3883645 C162.408934,41.3883645 162.880662,40.913359 162.880662,40.3267475 L162.880662,35.9700346 C162.880662,35.3834231 162.408934,34.9084175 161.826371,34.9084175 C158.594563,34.9084175 156.834708,35.6583547 155.420877,36.2599377 C154.855885,36.499482 154.380103,36.699556 153.831331,36.8451881 L138.02102,1.36540282 C137.764206,0.848204779 137.33438,0.415391686 136.561233,0.415391686 L135.702932,0.415391686 C134.931137,0.415391686 134.502662,0.848204779 134.244496,1.36540282 L119.17219,34.9655815 C116.813551,35.1452398 115.364577,35.753628 114.172417,36.2599377 C112.981609,36.7662473 112.193594,37.101065 110.266134,37.101065 C109.684922,37.101065 109.213195,37.5760706 109.213195,38.162682 L109.213195,42.519395 C109.213195,43.1060064 109.684922,43.581012 110.266134,43.581012 C112.834279,43.581012 114.467078,43.1087285 115.741689,42.6119462 L108.152145,59.5284051 C107.638516,60.6526303 108.325157,61.7754945 109.611933,61.7754945 L113.045137,61.7754945 C113.818284,61.7754945 114.333264,61.2582964 114.504924,60.8254833 L120.769846,46.564428 L122.967637,41.6646572 C123.485321,41.8089282 123.944884,41.9994748 124.485546,42.2294918 C125.900729,42.8310748 127.661935,43.581012 130.893743,43.581012 C134.126902,43.581012 135.886757,42.8310748 137.303292,42.2294918 C138.4941,41.7231822 139.280763,41.3883645 141.206872,41.3883645 C143.13298,41.3883645 143.919644,41.7231822 145.110452,42.2294918 C146.26882,42.722191 147.674541,43.3074414 149.914234,43.5061544 L151.237504,46.564428 L157.588932,60.8254833 C157.761944,61.2582964 158.275573,61.7754945 159.048719,61.7754945 L162.481924,61.7754945 C163.768699,61.7754945 164.45534,60.6526303 163.940359,59.5284051 L156.48463,42.7984097 Z M309.413595,55.8127455 L296.53908,55.8127455 L296.53908,7.15665977 L309.413595,7.15665977 C323.48838,7.15665977 333.702838,17.2692424 333.702838,31.4418297 C333.702838,45.7015239 323.48838,55.8127455 309.413595,55.8127455 Z M310.786877,1.27965682 L291.560934,1.27965682 C290.702633,1.27965682 290.015992,2.05681493 290.015992,2.92244111 L290.015992,60.1340712 C290.015992,60.9983364 290.702633,61.7754945 291.560934,61.7754945 L310.786877,61.7754945 C327.351411,61.7754945 340.912567,48.2072123 340.912567,31.4418297 C340.912567,14.847939 327.351411,1.27965682 310.786877,1.27965682 Z M260.280931,1.27965682 L256.846375,1.27965682 C255.988074,1.27965682 255.216279,2.05681493 255.216279,2.92244111 L255.216279,60.1340712 C255.216279,60.9983364 255.988074,61.7754945 256.846375,61.7754945 L260.280931,61.7754945 C261.13788,61.7754945 261.911027,60.9983364 261.911027,60.1340712 L261.911027,2.92244111 C261.911027,2.05681493 261.13788,1.27965682 260.280931,1.27965682 Z M229.364523,49.5913976 C228.849542,49.2443305 228.162902,49.1585845 227.304601,49.8499966 C222.756281,53.3070572 218.37827,56.3313046 210.911727,56.3313046 C197.351923,56.3313046 186.965805,44.8372588 186.965805,31.5289367 C186.965805,18.1321465 197.351923,6.63810069 210.911727,6.63810069 C216.748174,6.63810069 222.841435,9.2308961 227.304601,13.1194087 C228.162902,13.9836738 228.849542,14.0707809 229.536183,13.2065157 L231.85292,10.8736804 C232.539561,10.1809072 232.454407,9.14515011 231.767766,8.453738 C225.931319,3.4410002 219.666397,0.415391686 210.998233,0.415391686 C193.832213,0.415391686 180.014242,14.3293799 180.014242,31.6146827 C180.014242,48.8986244 193.832213,62.6397596 210.998233,62.6397596 C218.636436,62.6397596 226.017825,59.9612182 231.85292,54.2570683 C232.454407,53.6514022 232.626067,52.442792 231.939426,51.9228719 L229.364523,49.5913976 Z M92.6473091,55.9855986 L67.9295916,55.9855986 L67.9295916,2.92244111 C67.9295916,2.05681493 67.1564449,1.27965682 66.2981439,1.27965682 L62.9514458,1.27965682 C62.0066388,1.27965682 61.319998,2.05681493 61.319998,2.92244111 L61.319998,60.1340712 C61.319998,60.9983364 62.0066388,61.7754945 62.9514458,61.7754945 L92.6473091,61.7754945 C93.5907644,61.7754945 94.2774052,60.9983364 94.2774052,60.1340712 L94.2774052,57.6270218 C94.2774052,56.7641177 93.5907644,55.9855986 92.6473091,55.9855986 Z M20.170209,33.43032 L6.52254704,33.43032 L6.52254704,7.84807188 L20.170209,7.84807188 C27.2069256,7.84807188 33.2150327,13.2065157 33.2150327,20.2063828 C33.2150327,27.639063 27.2069256,33.43032 20.170209,33.43032 Z M20.5986836,1.27965682 L1.63090709,1.27965682 C0.687451803,1.27965682 -0.000540662055,2.05681493 -0.000540662055,2.92244111 L-0.000540662055,60.1340712 C-0.000540662055,60.9983364 0.687451803,61.7754945 1.63090709,61.7754945 L4.89245094,61.7754945 C5.75075195,61.7754945 6.52254704,60.9983364 6.52254704,60.1340712 L6.52254704,39.824521 L20.6838379,39.824521 C31.1551103,39.824521 39.8232747,31.0961236 39.8232747,20.3792359 C39.8232747,9.92230822 31.1551103,1.27965682 20.5986836,1.27965682 Z" id="Fill-1" fill="#FEFEFE" mask="url(#mask-2)"></path>
            </g>
            <g id="Group-6" transform="translate(129.000000, 0.000000)">
                <mask id="mask-4" fill="white">
                    <use xlink:href="#path-3"></use>
                </mask>
                <g id="Clip-5"></g>
                <path d="M22.0607211,16.4782242 L22.2325105,16.5467539 C22.6512474,16.7125956 23.0713263,16.8784373 23.4833526,17.0566143 C23.9155105,17.2443855 24.3396158,17.4431215 24.7650632,17.643228 L25.2119842,17.8515581 C25.5850895,18.0256233 25.9581947,18.1996886 26.3245895,18.3847186 C26.7379579,18.5930487 27.1446158,18.8150847 27.5512737,19.0371207 L28.0062474,19.2838274 C28.3645895,19.4770809 28.7242737,19.6703345 29.0772474,19.8745528 C29.4678,20.1007006 29.8503,20.3405543 30.2341421,20.5790374 L30.7360895,20.890162 C31.0702737,21.0957509 31.4058,21.3013398 31.7332737,21.5178934 C32.0929579,21.7563765 32.4459316,22.0058244 32.7989053,22.2539017 L33.3733263,22.6582265 C33.6820105,22.8734095 33.9906947,23.0885926 34.2926684,23.3133698 C34.6456421,23.5778941 34.9905632,23.8520127 35.3354842,24.1275018 L35.8964842,24.5715738 C36.1810105,24.7949804 36.4668789,25.0197576 36.7473789,25.2554995 C37.0681421,25.5227651 37.3781684,25.802366 37.6895368,26.0805963 L38.2760368,26.6014215 C38.5484842,26.8426458 38.8209316,27.0824995 39.0880105,27.333318 C39.3926684,27.6197719 39.6879316,27.9171905 39.9831947,28.2146091 L40.5723789,28.8012227 C40.8220105,29.0451882 41.0703,29.2918949 41.3091947,29.5427134 C41.5964053,29.8469849 41.8742211,30.15948 42.1520368,30.4733458 L42.7465895,31.1367126 C42.9693789,31.3834193 43.1935105,31.6287554 43.4069053,31.882315 C43.6874053,32.2139984 43.9558263,32.555276 44.2255895,32.8965536 L44.7745105,33.5832205 C44.9771684,33.8340389 45.1798263,34.0848574 45.3744316,34.3425288 C45.6321158,34.6838064 45.8790632,35.0360487 46.1246684,35.388291 L46.6735895,36.1626758 C46.8534316,36.4134943 47.0332737,36.6629422 47.2037211,36.9178724 C47.4533526,37.2920442 47.6882211,37.6744395 47.9244316,38.0582055 L48.4223526,38.850408 C48.5807211,39.0984853 48.7390895,39.3479332 48.8907474,39.6056046 C49.1363526,40.0208941 49.3658526,40.4457779 49.5953526,40.8706616 L50.0489842,41.7012407 C50.1778263,41.9301297 50.3066684,42.1576481 50.4274579,42.3920194 C50.7039316,42.9334035 50.9616158,43.487123 51.2206421,44.0408424 L51.5575105,44.7480682 C51.6434053,44.9248746 51.7293,45.1003105 51.8084842,45.2784875 C52.2379579,46.2488671 52.6486421,47.252141 53.0271158,48.258156 L54.4725632,52.1136331 C54.6201947,52.504252 54.9718263,52.7742587 55.3811684,52.807153 C55.7878263,52.8318236 56.1797211,52.6317171 56.3850632,52.2685101 L58.4103,48.6940044 C58.9283526,47.7784485 59.5161947,46.831369 60.1590632,45.8788071 C60.2731421,45.7102242 60.3939316,45.5471237 60.5160632,45.3840232 L60.8153526,44.9755866 C61.2381158,44.38212 61.6622211,43.7872827 62.1158526,43.2184868 C62.2943526,42.9937096 62.4809053,42.777156 62.6674579,42.5633435 L62.9627211,42.2193248 C63.3908526,41.7108349 63.8203263,41.2037156 64.2739579,40.714414 C64.5048,40.4663368 64.7423526,40.2278536 64.9812474,39.9893705 L65.2483263,39.722105 C65.6965895,39.27118 66.1435105,38.8216256 66.6065368,38.3940007 C66.9098526,38.1157704 67.2212211,37.8471342 67.5339316,37.578498 L67.6936421,37.4400682 C68.1606947,37.037114 68.6317737,36.6382715 69.1176158,36.2558761 C69.5001158,35.9529752 69.8933526,35.6637801 70.2825632,35.3745851 C70.7764579,35.0127486 71.2757211,34.6577651 71.7843789,34.3178581 C72.1883526,34.0451102 72.6003789,33.783327 73.0164316,33.524285 C73.5371684,33.1994545 74.0673,32.8897006 74.5987737,32.5895408 C74.8725632,32.437405 75.1450105,32.2852692 75.4201421,32.1372452 C75.4791947,32.3455753 75.5342211,32.5539054 75.5892474,32.7622355 C75.7556684,33.3954493 75.9019579,34.0314043 76.0495895,34.752336 C76.1220632,35.1073195 76.1958789,35.462303 76.2576158,35.8159159 C76.3757211,36.5039534 76.4643,37.1974733 76.5421421,37.8923638 L76.5904579,38.2912062 C76.6159579,38.4913128 76.6414579,38.6900487 76.6589053,38.8901552 C76.7528526,40.0113 76.7998263,41.0282797 76.7998263,41.9959182 C76.7998263,55.5414853 69.4370368,67.7658011 57.5862474,73.8992032 C57.3500368,74.021186 57.1138263,74.1417981 56.8735895,74.2582985 C56.7876947,74.2857104 56.7044842,74.3268281 56.6293263,74.3761695 C54.5235632,75.3835551 52.3238526,76.174387 50.0892474,76.729477 C47.3661158,77.4051792 44.5718526,77.749198 41.7883263,77.749198 C22.4834842,77.749198 6.77682632,61.7105228 6.77682632,41.9959182 C6.77682632,31.7438851 11.0715632,22.0236421 18.5819842,15.2323555 C18.7564579,15.2885498 18.9309316,15.3461147 19.1054053,15.4036796 L19.3375895,15.4790622 C19.7469316,15.6161215 20.1576158,15.7504395 20.5602474,15.8957224 C21.0581684,16.0780112 21.5507211,16.2753765 22.0607211,16.4782242 Z M73.1036684,26.4862917 C72.7547211,26.6658394 72.4057737,26.845387 72.0635368,27.0358994 C71.3025632,27.4539302 70.5590368,27.8980022 69.8208789,28.3571507 L69.4987737,28.5558866 C69.3229579,28.6600517 69.1484842,28.7655873 68.9780368,28.8779759 C67.9580368,29.5427134 66.9769579,30.2362332 66.0603,30.9352355 C65.9556158,31.0147299 65.8536158,31.0997066 65.7516158,31.1846833 L65.5543263,31.3464133 C64.7598,31.9686623 64.0015105,32.6005056 63.3022737,33.2200134 C63.0808263,33.4160082 62.8674316,33.6174853 62.6526947,33.820333 L62.4138,34.042369 C61.8232737,34.5933473 61.2475105,35.1539197 60.6878526,35.7309392 C60.3831947,36.0406931 60.0852474,36.3545588 59.7926684,36.6725363 C59.2383789,37.2755971 58.7042211,37.8937344 58.1821421,38.5214658 L57.9472737,38.7996961 C57.7728,39.0066556 57.5983263,39.2122445 57.4305632,39.4246863 C57.0547737,39.8975408 56.7018,40.3594305 56.3582211,40.8226908 C56.1569053,40.4101425 55.9488789,39.9962235 55.7368263,39.5809339 C55.6697211,39.449357 55.5972474,39.3191507 55.5261158,39.190315 L55.3811684,38.92442 C54.9758526,38.1568881 54.5598,37.3962092 54.1249579,36.6492362 C53.9786684,36.3970472 53.8256684,36.1517111 53.6726684,35.9050044 L53.4968526,35.6185506 C53.1250895,35.0100074 52.7493,34.4069467 52.3587474,33.81348 C52.1346158,33.4735731 51.9037737,33.1391485 51.6138789,32.7170059 C51.2300368,32.1605453 50.8368,31.6123083 50.4368526,31.0695536 C50.1711158,30.7090877 49.9026947,30.351363 49.6302474,29.9991207 C49.2128526,29.4604778 48.7847211,28.9327996 48.3485368,28.406492 L48.1364842,28.1488206 C47.9351684,27.9034845 47.7325105,27.6608896 47.5244842,27.4182947 C47.0373,26.8563518 46.5366947,26.3094853 46.0320632,25.7667306 L45.7636421,25.4734238 C45.6106421,25.3048409 45.4576421,25.1376286 45.3006158,24.9745281 C44.4993789,24.1425783 43.7370632,23.390123 42.9720632,22.6760442 L42.6150632,22.3594373 C41.9238789,21.7234823 41.2206158,21.1026038 40.5025895,20.5009137 C40.3053,20.3350719 40.1039842,20.1760832 39.9026684,20.0170944 L39.6020368,19.7772407 C39.0464053,19.3290569 38.4867474,18.8863555 37.9150105,18.4559894 C37.6278,18.242177 37.3365632,18.0338469 37.0466684,17.8255168 L36.8668263,17.6966811 C36.3192474,17.3060622 35.7663,16.9195551 35.2079842,16.5481245 C34.8415895,16.304159 34.4725105,16.0629347 34.0994053,15.8258221 C33.5290105,15.4639857 32.9519053,15.113114 32.3680895,14.7690952 L32.1748263,14.655336 C31.8701684,14.477159 31.5655105,14.2976113 31.2581684,14.1249167 C30.6233526,13.7685626 29.9791421,13.4327674 29.3309053,13.1010839 L28.9806158,12.9174245 C28.7699053,12.8064065 28.5578526,12.6967591 28.3404316,12.5898529 C27.4801421,12.1677104 26.5769053,11.755162 25.6562211,11.3604313 L25.3408263,11.2178896 C25.0683789,11.1027599 24.7959316,10.9903713 24.5221421,10.8793533 C29.7496421,7.83800818 35.6750368,6.23989715 41.7883263,6.23989715 C55.4308263,6.23989715 67.4118,13.9316631 73.2902211,26.3862385 L73.1036684,26.4862917 Z M82.5306158,37.585351 L82.4769316,37.1536143 C82.3937211,36.4203473 82.2876947,35.5513915 82.1373789,34.6879182 C82.0756421,34.3301935 82.0004842,33.97521 81.9253263,33.6202265 L81.8662737,33.3351432 C81.7105895,32.585429 81.5428263,31.8411972 81.3468789,31.1010772 C81.2220632,30.6323345 81.0851684,30.1677036 80.9455895,29.7003315 C80.9442474,29.6934785 80.9402211,29.6838844 80.9388789,29.6770314 C87.0642474,27.4977891 93.6741158,26.8015281 100.125616,27.6540367 C100.706747,27.7349017 101.240905,27.3127591 101.317405,26.7179219 L101.813984,22.8117329 C101.889142,22.2168956 101.4798,21.674141 100.897326,21.5960172 C93.4915895,20.6091905 85.8630632,21.445252 78.7754053,24.0027779 C71.9333526,9.25383038 57.8452737,0.131165716 41.7883263,0.131165716 C32.9277474,0.131165716 24.0779053,3.2095168 16.8587211,8.80838777 C15.0656684,10.2406571 13.3397211,11.8826271 13.2538263,11.9662332 C5.21998421,19.9143 0.795063158,30.5788814 0.795063158,41.9959182 C0.795063158,65.0794395 19.1845895,83.8593 41.7883263,83.8593 C45.0456158,83.8593 48.3136421,83.4577164 51.5024842,82.6655138 C53.0405368,82.284489 54.6269053,81.7787404 56.2266947,81.1592325 C58.2183789,80.508201 61.3387737,78.7894778 61.4072211,78.7236893 C74.5974316,71.3745716 82.7829316,57.3218851 82.7829316,41.9959182 C82.7829316,40.839138 82.7279053,39.6371282 82.6165105,38.3199887 C82.5950368,38.073282 82.5628263,37.8306871 82.5306158,37.585351 Z" id="Fill-4" fill="#FEFEFE" mask="url(#mask-4)"></path>
            </g>
            <path d="M252.966551,38.2610864 L252.124406,35.5576754 C251.99685,35.1473594 251.541489,34.9084413 251.105329,35.0330942 C248.17154,35.8511293 245.517552,37.3989035 243.42865,39.5089144 C241.819798,41.1371937 240.567554,43.0861946 239.770671,45.1988025 C235.384389,42.3499631 229.959828,41.1345967 224.70397,41.8487543 C224.488634,41.8786191 224.293871,41.9876904 224.163571,42.1525959 C224.033272,42.3175014 223.977038,42.5252563 224.008584,42.7291158 L224.435142,45.5182257 C224.498235,45.9428248 224.915192,46.242771 225.363696,46.1765491 C230.538631,45.4727793 235.831521,47.1516988 239.529275,50.6757418 L241.729274,52.7714696 C241.885633,52.9207934 242.096855,53 242.31082,53 C242.402715,53 242.49461,52.9857168 242.583762,52.9558521 C242.881393,52.8571685 243.093987,52.6052656 243.128276,52.3066179 L243.464311,49.3694827 C243.755084,46.8179925 244.941492,44.3781705 246.801341,42.4992869 C248.326528,40.9567066 250.265928,39.8257407 252.412436,39.2258484 C252.620915,39.1674173 252.796476,39.033675 252.900715,38.853188 C253.003583,38.6714024 253.028271,38.4584536 252.966551,38.2610864" id="Fill-7" fill="#FEFEFE"></path>
            <path d="M67.7992952,195.636033 L67.8236425,195.71126 C68.031235,196.333228 68.2362646,196.957882 68.4361685,197.58791 C68.6360724,198.217938 68.8077847,198.792888 68.9513055,199.312762 L68.9769342,199.312762 C69.1524908,198.607507 69.4895082,197.524773 69.9854237,196.064559 L70.177639,195.484235 L73.7810348,185.209008 C73.0442095,185.157961 72.3637674,185.04109 71.7397085,184.857053 L71.7397085,184 L77,184 L77,184.857053 C76.7924075,184.922876 76.5322761,184.987357 76.2208874,185.045121 C75.9082172,185.104228 75.6403972,185.149901 75.4148646,185.183485 L69.7457953,201 L68.0645523,201 L62.5851354,185.183485 C62.3608842,185.149901 62.0969085,185.104228 61.7932084,185.045121 C61.4882268,184.987357 61.2242512,184.922876 61,184.857053 L61,184 L66.4063751,184 L66.4063751,184.857053 C65.7489989,185.04109 65.0685568,185.157961 64.3637674,185.209008 L67.7992952,195.636033 Z" id="Fill-9" fill="#FEFEFE"></path>
            <path d="M100,201 L100,200.142947 C100.688481,199.95891 101.419991,199.840695 102.193187,199.792335 L102.193187,185.209008 C101.419991,185.157961 100.688481,185.04109 100,184.855709 L100,184 L106,184 L106,184.855709 C105.327656,185.04109 104.596145,185.157961 103.806813,185.209008 L103.806813,199.792335 C104.596145,199.840695 105.327656,199.95891 106,200.142947 L106,201 L100,201 Z" id="Fill-11" fill="#FEFEFE"></path>
            <path d="M129,201 L129,200.142947 C129.664417,199.95891 130.370361,199.840695 131.116533,199.792335 L131.116533,185.209008 C130.370361,185.157961 129.664417,185.04109 129,184.855709 L129,184 L134.790293,184 L134.790293,184.855709 C134.141448,185.04109 133.435505,185.157961 132.673761,185.209008 L132.673761,199.690241 L137.612769,199.690241 C137.645212,199.371869 137.697119,199.01051 137.771087,198.607507 C137.843758,198.204504 137.929406,197.742394 138.026732,197.221177 L139,197.221177 L139,201 L129,201 Z" id="Fill-13" fill="#FEFEFE"></path>
            <path d="M161,201 L161,200.142947 C161.664417,199.95891 162.370361,199.840695 163.116533,199.792335 L163.116533,185.209008 C162.370361,185.157961 161.664417,185.04109 161,184.855709 L161,184 L166.790293,184 L166.790293,184.855709 C166.141448,185.04109 165.435505,185.157961 164.673761,185.209008 L164.673761,199.690241 L169.612769,199.690241 C169.645212,199.371869 169.697119,199.01051 169.771087,198.607507 C169.843758,198.204504 169.929406,197.742394 170.026732,197.221177 L171,197.221177 L171,201 L161,201 Z" id="Fill-15" fill="#FEFEFE"></path>
            <path d="M202.203582,188.080752 C201.952734,187.375553 201.701886,186.569611 201.449696,185.662927 L201.424209,185.662927 L201.374576,185.838891 C201.08885,186.830199 200.855441,187.56092 200.668981,188.029709 L198.004892,195.257664 L204.870354,195.257664 L202.203582,188.080752 Z M204.391462,201 L204.391462,200.143015 C205.046082,199.958992 205.758384,199.840787 206.529709,199.791087 L205.322418,196.56732 L197.551487,196.56732 L196.369684,199.791087 C197.139667,199.840787 197.85331,199.958992 198.50793,200.143015 L198.50793,201 L193,201 L193,200.143015 C193.23341,200.075853 193.511087,200.008692 193.829007,199.942873 C194.146927,199.875711 194.424603,199.834071 194.658013,199.816609 L200.644835,184 L202.404798,184 L208.340645,199.816609 C208.575397,199.834071 208.853073,199.875711 209.170993,199.942873 C209.488913,200.008692 209.76659,200.075853 210,200.143015 L210,201 L204.391462,201 Z" id="Fill-17" fill="#FEFEFE"></path>
            <path d="M245.144808,193.694041 L245.144808,200.089379 C244.285923,200.384609 243.366572,200.610296 242.38813,200.76644 C241.408314,200.922584 240.455982,201 239.528386,201 C238.273727,201 237.119385,200.816301 236.062613,200.44628 C235.00584,200.07757 234.100232,199.540908 233.345787,198.83498 C232.588594,198.130364 232.010049,197.269605 231.606029,196.251389 C231.20201,195.235798 231,194.086369 231,192.807039 C231,191.561825 231.210255,190.401899 231.630765,189.325949 C232.05265,188.252624 232.657305,187.313137 233.447479,186.508799 C234.237654,185.707086 235.199605,185.087759 236.333333,184.65213 C237.467062,184.219126 238.729967,184 240.120673,184 C241.581465,184 243.117839,184.198132 244.733917,184.591772 L244.733917,188.084671 L243.675771,188.084671 C243.521859,187.378743 243.400928,186.600648 243.315726,185.747762 C242.078932,185.452532 240.945203,185.304261 239.914541,185.304261 C238.96908,185.304261 238.067594,185.452532 237.210083,185.747762 C236.351198,186.042992 235.587134,186.494366 234.916516,187.100571 C234.247273,187.708089 233.7182,188.46519 233.332045,189.37581 C232.94589,190.286431 232.752126,191.340074 232.752126,192.538052 C232.752126,194.784424 233.395259,196.53481 234.685648,197.78921 C235.973289,199.044921 237.681439,199.670809 239.811475,199.670809 C241.082625,199.670809 242.3098,199.491047 243.495749,199.13021 L243.495749,193.694041 C242.757794,193.64418 242.010221,193.537897 241.254402,193.372569 L241.254402,192.513121 L247,192.513121 L247,193.372569 C246.519024,193.505094 245.900627,193.611377 245.144808,193.694041" id="Fill-19" fill="#FEFEFE"></path>
            <path d="M270,201 L270,200.142947 C270.649861,199.95891 271.337725,199.840695 272.066126,199.792335 L272.066126,185.209008 C271.337725,185.157961 270.649861,185.04109 270,184.855709 L270,184 L279.951862,184 L279.951862,187.651205 L278.977705,187.651205 C278.946035,187.449704 278.906765,187.222679 278.858627,186.971474 C278.731948,186.148005 278.653408,185.586488 278.621738,185.284235 L273.587535,185.284235 L273.587535,191.606006 L277.57664,191.606006 C277.686851,190.8 277.813529,190.144449 277.956676,189.640695 L278.811756,189.640695 L278.811756,194.804504 L277.956676,194.804504 C277.798328,194.300751 277.671649,193.654603 277.57664,192.864718 L273.587535,192.864718 L273.587535,199.690241 L278.645807,199.690241 C278.677477,199.320822 278.780086,198.649151 278.953636,197.675227 L279.025842,197.272224 L280,197.272224 L280,201 L270,201 Z" id="Fill-21" fill="#FEFEFE"></path>
        </g>
    </g>
</svg>